<svg xmlns="http://www.w3.org/2000/svg" width="63" height="50" viewBox="0 0 63 50" fill="none">
  <path d="M51.5674 42.9874H34.4958V14.8407C36.4765 13.987 37.9974 12.3368 38.7035 10.3076L51.5072 6.08106C52.3201 5.81272 52.7575 4.9466 52.485 4.14636L51.4985 1.24909C51.2259 0.448852 50.3462 0.0181767 49.5333 0.286513L38.0954 4.06137C36.7558 1.76857 34.2717 0.206299 31.3918 0.206299C27.1065 0.206299 23.632 3.62688 23.632 7.84578C23.632 8.17332 23.6892 8.48654 23.73 8.80358L11.2764 12.9146C10.4636 13.1829 10.0261 14.049 10.2987 14.8493L11.2852 17.7465C11.5577 18.5468 12.4375 18.9775 13.2503 18.7091L27.0289 14.1608C27.4237 14.4253 27.8466 14.6497 28.2889 14.8407V47.5711C28.2889 48.4152 28.9834 49.099 29.8408 49.099H51.5684C52.4258 49.099 53.1203 48.4152 53.1203 47.5711V44.5153C53.1194 43.6711 52.4248 42.9874 51.5674 42.9874ZM62.4292 29.2363C62.4292 27.6912 62.5592 28.4027 54.1795 11.9033C52.4675 8.53333 47.5653 8.52665 45.8503 11.9033C37.3999 28.544 37.6016 27.7399 37.6016 29.2363H37.5997C37.5997 33.4552 43.1586 36.8758 50.0154 36.8758C56.8722 36.8758 62.4311 33.4552 62.4311 29.2363H62.4292ZM43.0316 27.7084L50.0154 13.9574L56.9993 27.7084H43.0316ZM16.9324 24.1265C15.2204 20.7565 10.3181 20.7498 8.60317 24.1265C0.152723 40.7672 0.354479 39.9631 0.354479 41.4595H0.352539C0.352539 45.6784 5.91148 49.099 12.7683 49.099C19.625 49.099 25.184 45.6784 25.184 41.4595H25.182C25.182 39.9144 25.312 40.6258 16.9324 24.1265ZM5.78442 39.9316L12.7683 26.1805L19.7521 39.9316H5.78442Z" fill="#D9ECF5"/>
</svg>