<svg xmlns="http://www.w3.org/2000/svg" width="66" height="46" viewBox="0 0 66 46" fill="none">
  <path d="M55.4579 20.3072C55.8766 19.2316 56.1114 18.0555 56.1114 16.8292C56.1114 11.5017 51.721 7.17934 46.3095 7.17934C44.2981 7.17934 42.4194 7.78246 40.8674 8.80776C38.0392 3.98282 32.7604 0.746094 26.7057 0.746094C17.6798 0.746094 10.3693 7.94329 10.3693 16.8292C10.3693 17.1006 10.3795 17.372 10.3897 17.6434C4.67192 19.6237 0.567383 24.9914 0.567383 31.304C0.567383 39.2953 7.15302 45.7788 15.2702 45.7788H52.8441C60.0628 45.7788 65.9133 40.0191 65.9133 32.9123C65.9133 26.6902 61.4208 21.4933 55.4579 20.3072Z" fill="#D9ECF5"/>
</svg>