<svg xmlns="http://www.w3.org/2000/svg" width="46" height="59" viewBox="0 0 46 59" fill="none">
  <path d="M30.2264 18.6507V2.22213C30.2264 1.21359 29.3846 0.396729 28.3453 0.396729H24.5833C23.544 0.396729 22.7023 1.21359 22.7023 2.22213V18.985C23.2924 18.7819 23.9179 18.6507 24.5798 18.6507H30.2264ZM45.2746 29.6019C45.2734 25.5701 41.9052 22.3015 37.7516 22.3015H24.568C23.5358 22.3015 22.6987 23.1081 22.6987 24.1098V24.1737C22.6987 27.1707 25.2028 29.6031 28.2913 29.6031H32.4366C33.5746 29.6031 33.9884 30.0115 33.9884 30.5158V32.364C33.9884 32.8534 33.5664 33.2516 33.062 33.2767C27.8281 33.5368 25.5191 36.0958 21.77 41.5537L21.0282 42.6341C20.9597 42.7339 20.8717 42.8196 20.7691 42.8863C20.6665 42.953 20.5514 42.9994 20.4303 43.023C20.3093 43.0465 20.1846 43.0466 20.0635 43.0234C19.9423 43.0001 19.8271 42.9539 19.7244 42.8874L18.1596 41.8743C18.0568 41.8079 17.9685 41.7225 17.8998 41.6229C17.831 41.5234 17.7831 41.4117 17.7589 41.2942C17.7347 41.1767 17.7345 41.0557 17.7585 40.9381C17.7825 40.8206 17.8301 40.7088 17.8986 40.6091L18.6404 39.5287C20.4897 36.8362 22.1909 34.5933 24.2024 32.9025C22.172 32.2739 20.5109 30.8352 19.6327 28.9722C18.8579 29.3612 17.9915 29.6019 17.0615 29.6019H13.2995C11.8488 29.6019 10.5379 29.0532 9.53744 28.1781C8.5358 29.0543 7.22496 29.6031 5.7754 29.6031H2.01335C1.35029 29.6031 0.723671 29.4719 0.132324 29.2665V38.1573C0.132324 42.0306 1.71709 45.7441 4.5398 48.4834L7.65524 51.5078V58.8094H37.7493V51.5124L41.971 47.4144C44.0881 45.3594 45.2772 42.5725 45.2769 39.6667L45.2746 29.6019ZM41.5113 19.3238V5.87292C41.5113 4.86439 40.6696 4.04752 39.6303 4.04752H35.8683C34.829 4.04752 33.9872 4.86439 33.9872 5.87292V18.6507H37.7493C39.0754 18.6507 40.3286 18.9142 41.5113 19.3238ZM2.01335 25.9523H5.7754C6.81466 25.9523 7.65642 25.1354 7.65642 24.1269V9.52371C7.65642 8.51518 6.81466 7.69832 5.7754 7.69832H2.01335C0.974082 7.69832 0.132324 8.51518 0.132324 9.52371V24.1269C0.132324 25.1354 0.974082 25.9523 2.01335 25.9523ZM13.2983 25.9523H17.0604C18.0996 25.9523 18.9414 25.1354 18.9414 24.1269V5.87292C18.9414 4.86439 18.0996 4.04752 17.0604 4.04752H13.2983C12.2591 4.04752 11.4173 4.86439 11.4173 5.87292V24.1269C11.4173 25.1354 12.2591 25.9523 13.2983 25.9523Z" fill="#D9ECF5"/>
</svg>