<svg xmlns="http://www.w3.org/2000/svg" width="40" height="56" viewBox="0 0 40 56" fill="none">
  <path d="M23.1336 3.0258C22.2738 -0.0479624 17.7797 -0.191077 16.8051 3.0258C11.7403 19.8749 0.910156 24.4535 0.910156 36.3288C0.910156 46.8423 9.43483 55.3491 19.9694 55.3491C30.5039 55.3491 39.0286 46.8423 39.0286 36.3288C39.0286 24.3936 28.2222 19.9518 23.1336 3.0258ZM19.9694 48.5138C13.2824 48.5138 7.84078 43.147 7.84078 36.552C7.84078 35.6078 8.61615 34.8431 9.57344 34.8431C10.5307 34.8431 11.3061 35.6078 11.3061 36.552C11.3061 41.263 15.1927 45.0961 19.9694 45.0961C20.9267 45.0961 21.702 45.8608 21.702 46.805C21.702 47.7491 20.9267 48.5138 19.9694 48.5138Z" fill="#D9ECF5"/>
</svg>