<svg xmlns="http://www.w3.org/2000/svg" width="70" height="51" viewBox="0 0 70 51" fill="none">
  <path d="M68.9471 16.1612L60.4139 1.86061C59.4705 0.277519 57.3801 -0.260731 55.7506 0.646905L48.3537 4.77348L54.7536 15.5068C54.9895 15.9079 54.8501 16.4039 54.4427 16.6361L52.9634 17.4593C52.556 17.6915 52.0307 17.5543 51.7949 17.1532L45.3949 6.43045L39.4774 9.73382L42.4683 14.7364C42.7042 15.1374 42.5648 15.6335 42.1574 15.8656L40.678 16.6888C40.2707 16.921 39.7454 16.7838 39.5095 16.3828L36.5186 11.3908L30.6011 14.6942L37.0117 25.4275C37.2476 25.818 37.1082 26.3246 36.7009 26.5568L35.2215 27.38C34.8141 27.6121 34.2888 27.4749 34.053 27.0739L27.653 16.3406L21.7355 19.6439L24.7264 24.6465C24.9623 25.0475 24.8229 25.5436 24.4156 25.7758L22.9362 26.599C22.5288 26.8312 22.0035 26.694 21.7677 26.2929L18.7768 21.2798L12.8592 24.5832L19.2592 35.3165C19.495 35.707 19.3556 36.2136 18.9483 36.4458L17.4689 37.269C17.0615 37.5012 16.5362 37.364 16.3004 36.9629L9.90046 26.2612L2.50354 30.3878C0.874078 31.306 0.305909 33.3218 1.24928 34.9049L9.78253 49.216C10.7259 50.7991 12.8163 51.3373 14.4458 50.4297L67.7036 20.6782C69.333 19.7706 69.8905 17.7442 68.9471 16.1612Z" fill="#D9ECF5"/>
</svg>