<svg xmlns="http://www.w3.org/2000/svg" width="61" height="49" viewBox="0 0 61 49" fill="none">
  <path d="M50.3937 42.8143H33.8759V15.1517C35.7923 14.3127 37.2639 12.6909 37.9471 10.6966L50.3355 6.54276C51.122 6.27903 51.5452 5.42781 51.2815 4.64133L50.327 1.7939C50.0633 1.00742 49.2121 0.584157 48.4256 0.847878L37.3587 4.55781C36.0626 2.30445 33.6591 0.769043 30.8727 0.769043C26.7263 0.769043 23.3646 4.13079 23.3646 8.27712C23.3646 8.59903 23.4199 8.90686 23.4594 9.21845L11.4098 13.2587C10.6234 13.5225 10.2001 14.3737 10.4638 15.1602L11.4183 18.0076C11.682 18.7941 12.5332 19.2173 13.3197 18.9536L26.6512 14.4835C27.0332 14.7435 27.4424 14.964 27.8704 15.1517V47.3191C27.8704 48.1488 28.5423 48.8208 29.372 48.8208H50.3946C51.2243 48.8208 51.8962 48.1488 51.8962 47.3191V44.3159C51.8953 43.4863 51.2233 42.8143 50.3937 42.8143ZM60.9031 29.2997C60.9031 27.7812 61.0289 28.4804 52.9211 12.2649C51.2646 8.95285 46.5214 8.94628 44.8621 12.2649C36.6858 28.6193 36.881 27.8291 36.881 29.2997H36.8791C36.8791 33.4461 42.2577 36.8078 48.8921 36.8078C55.5264 36.8078 60.905 33.4461 60.905 29.2997H60.9031ZM42.1348 27.7981L48.8921 14.2836L55.6493 27.7981H42.1348ZM16.8823 24.2778C15.2258 20.9658 10.4826 20.9592 8.8233 24.2778C0.646998 40.6323 0.842209 39.842 0.842209 41.3127H0.840332C0.840332 45.459 6.21893 48.8208 12.8533 48.8208C19.4876 48.8208 24.8662 45.459 24.8662 41.3127H24.8643C24.8643 39.7942 24.9901 40.4934 16.8823 24.2778ZM6.09599 39.8111L12.8533 26.2965L19.6105 39.8111H6.09599Z" fill="#081C15"/>
</svg>