<svg xmlns="http://www.w3.org/2000/svg" width="64" height="46" viewBox="0 0 64 46" fill="none">
  <path d="M53.2924 20.1011C53.6975 19.044 53.9247 17.8882 53.9247 16.683C53.9247 11.4471 49.6767 7.19906 44.4408 7.19906C42.4946 7.19906 40.6769 7.7918 39.1752 8.79947C36.4388 4.05752 31.3313 0.876465 25.473 0.876465C16.7399 0.876465 9.66651 7.94987 9.66651 16.683C9.66651 16.9497 9.67639 17.2164 9.68627 17.4832C4.154 19.4293 0.182617 24.7047 0.182617 30.9088C0.182617 38.7626 6.55461 45.1346 14.4085 45.1346H50.7634C57.7479 45.1346 63.4086 39.4739 63.4086 32.4894C63.4086 26.3743 59.0618 21.2668 53.2924 20.1011Z" fill="#081C15"/>
</svg>