<svg xmlns="http://www.w3.org/2000/svg" width="45" height="59" viewBox="0 0 45 59" fill="none">
  <path d="M29.4615 18.6519V2.50591C29.4615 1.51473 28.647 0.711914 27.6415 0.711914H24.0015C22.9959 0.711914 22.1815 1.51473 22.1815 2.50591V18.9804C22.7525 18.7809 23.3577 18.6519 23.9981 18.6519H29.4615ZM44.0215 29.4148C44.0203 25.4523 40.7614 22.2399 36.7426 22.2399H23.9867C22.988 22.2399 22.1781 23.0326 22.1781 24.0171V24.0799C22.1781 27.0254 24.6009 29.4159 27.5892 29.4159H31.6C32.7011 29.4159 33.1015 29.8173 33.1015 30.3129V32.1293C33.1015 32.6104 32.6931 33.0017 32.2051 33.0263C27.141 33.282 24.9069 35.7969 21.2794 41.161L20.5617 42.2228C20.4955 42.3209 20.4103 42.4051 20.311 42.4706C20.2118 42.5362 20.1004 42.5819 19.9833 42.605C19.8661 42.6281 19.7455 42.6282 19.6283 42.6054C19.5111 42.5825 19.3996 42.5371 19.3002 42.4717L17.7862 41.4761C17.6867 41.4108 17.6013 41.3269 17.5348 41.229C17.4683 41.1312 17.4219 41.0214 17.3985 40.9059C17.375 40.7905 17.3749 40.6715 17.3981 40.556C17.4213 40.4405 17.4674 40.3306 17.5336 40.2326L18.2514 39.1708C20.0407 36.5246 21.6867 34.3203 23.6329 32.6586C21.6685 32.0408 20.0612 30.6269 19.2115 28.7959C18.4618 29.1782 17.6235 29.4148 16.7238 29.4148H13.0838C11.6801 29.4148 10.4118 28.8755 9.44375 28.0155C8.4746 28.8766 7.20629 29.4159 5.80375 29.4159H2.16375C1.5222 29.4159 0.915913 29.287 0.34375 29.0851V37.823C0.34375 41.6297 1.8771 45.2794 4.60824 47.9715L7.62261 50.9439V58.1199H36.7403V50.9484L40.8251 46.9209C42.8735 44.9013 44.0241 42.1623 44.0238 39.3065L44.0215 29.4148ZM40.3803 19.3135V6.09391C40.3803 5.10273 39.5659 4.29991 38.5603 4.29991H34.9203C33.9148 4.29991 33.1003 5.10273 33.1003 6.09391V18.6519H36.7403C38.0234 18.6519 39.236 18.9109 40.3803 19.3135ZM2.16375 25.8279H5.80375C6.8093 25.8279 7.62375 25.0251 7.62375 24.0339V9.68191C7.62375 8.69073 6.8093 7.88791 5.80375 7.88791H2.16375C1.1582 7.88791 0.34375 8.69073 0.34375 9.68191V24.0339C0.34375 25.0251 1.1582 25.8279 2.16375 25.8279ZM13.0826 25.8279H16.7226C17.7282 25.8279 18.5426 25.0251 18.5426 24.0339V6.09391C18.5426 5.10273 17.7282 4.29991 16.7226 4.29991H13.0826C12.0771 4.29991 11.2626 5.10273 11.2626 6.09391V24.0339C11.2626 25.0251 12.0771 25.8279 13.0826 25.8279Z" fill="#081C15"/>
</svg>