<svg width="70" height="70" viewBox="0 0 70 70" fill="none" xmlns="http://www.w3.org/2000/svg">
<path d="M69.9942 34.9956V34.9781C69.9942 24.6215 65.4854 15.3207 58.3255 8.92468L58.2905 8.89551C58.2022 8.80018 58.1034 8.71507 57.996 8.64177L57.9902 8.63886C51.6312 3.05523 43.4536 -0.0164251 34.9912 6.60597e-05C26.1487 6.60597e-05 18.076 3.28409 11.9223 8.70302L11.9603 8.67094C11.8861 8.7272 11.8177 8.79071 11.7561 8.86051C8.05671 12.1363 5.09556 16.1638 3.06884 20.6704C1.04211 25.1771 -0.0039281 30.0629 1.10843e-05 35.0044C1.10843e-05 45.3581 4.50297 54.6589 11.657 61.0578L11.6919 61.087C11.7846 61.1921 11.8882 61.2869 12.0011 61.3699L12.0069 61.3728C18.3643 66.9482 26.5356 70.0153 34.9912 69.9999C43.4864 70.013 51.6928 66.9174 58.0631 61.297L58.0252 61.3291C61.7887 58.0569 64.8055 54.0145 66.8714 49.4753C68.9374 44.9362 70.0043 40.0062 70 35.019V34.9985L69.9942 34.9956ZM56.9811 57.7592C55.2474 56.3568 53.383 55.1243 51.4136 54.0785L51.2241 53.9852C53.0118 48.8317 54.088 42.8907 54.1901 36.7106V36.6639H66.6169C66.1979 44.6593 62.7566 52.1968 56.9898 57.7505L56.9811 57.7592ZM36.6653 53.3698C40.407 53.5711 43.9038 54.3935 47.1294 55.7322L46.9194 55.6564C44.3355 61.5478 40.6987 65.596 36.6653 66.4855V53.3698ZM36.6653 50.0333V36.6639H50.8624C50.7498 42.2002 49.7898 47.6867 48.016 52.9324L48.1297 52.5503C44.5089 51.062 40.6578 50.2114 36.7469 50.0362L36.6682 50.0333H36.6653ZM36.6653 33.3274V19.9579C40.6817 19.7746 44.6358 18.8954 48.3514 17.3593L48.121 17.4439C49.7396 22.1658 50.7341 27.608 50.8624 33.2661V33.3274H36.6653ZM36.6653 16.6214V3.51158C40.6987 4.40112 44.3355 8.43178 46.9194 14.3407C43.9038 15.5948 40.407 16.4144 36.7499 16.6185L36.6653 16.6214ZM44.9887 4.95527C48.4253 6.10157 51.6393 7.82999 54.4905 10.065L54.4234 10.0125C53.1314 11.0275 51.6819 11.9841 50.1537 12.8153L49.9904 12.897C48.7555 9.98258 47.0577 7.28696 44.9625 4.91444L44.9887 4.94652V4.95527ZM33.3231 3.52033V16.6214C29.7256 16.4379 26.1863 15.6389 22.8589 14.259L23.0689 14.3349C25.6645 8.44345 29.2955 4.39821 33.3289 3.50866L33.3231 3.52033ZM20.0008 12.8883C18.4199 12.0377 16.9136 11.0552 15.4979 9.9513L15.5679 10.0038C18.3359 7.83434 21.4495 6.14638 24.7779 5.01068L24.9996 4.9436C22.9593 7.25185 21.2968 9.86821 20.0737 12.6958L20.0008 12.8883ZM33.3289 19.955V33.3245H19.1317C19.2601 27.6051 20.2546 22.1629 21.9869 17.0589L21.8732 17.441C25.4926 18.9269 29.3415 19.7764 33.2501 19.9521L33.3289 19.955ZM33.3289 36.661V50.0304C29.3125 50.2137 25.3584 51.093 21.6428 52.629L21.8732 52.5445C20.2546 47.8255 19.2601 42.3803 19.1317 36.7222V36.661H33.3289ZM33.3289 53.3669V66.4768C29.2955 65.5872 25.6587 61.5566 23.0747 55.6476C26.0903 54.3935 29.5871 53.5769 33.2443 53.3728L33.3289 53.3669ZM25.0171 65.0331C21.5814 63.8901 18.3675 62.1657 15.5154 59.935L15.5854 59.9875C16.8773 58.9725 18.3268 58.0159 19.855 57.1847L20.0183 57.103C21.2429 60.0186 22.9408 62.7119 25.0433 65.0739L25.0171 65.0447V65.0331ZM49.9933 57.1001C51.6849 58.0188 53.1343 58.9725 54.4963 60.037L54.4263 59.9845C51.6582 62.154 48.5447 63.842 45.2162 64.9777L44.9946 65.0447C47.0348 62.7376 48.6973 60.1222 49.9204 57.2955L49.9933 57.1059V57.1001ZM66.6169 33.3274H54.1901C54.1007 27.2929 53.0593 21.3104 51.1045 15.6006L51.2241 16.0031C53.2842 14.9184 55.2347 13.6369 57.0482 12.1766L56.9782 12.2291C62.733 17.7619 66.1755 25.2714 66.6111 33.2428L66.614 33.3245L66.6169 33.3274ZM13.0131 12.232C14.6929 13.597 16.5799 14.8482 18.5805 15.9127L18.7701 16.006C16.9823 21.1596 15.9062 27.1006 15.8041 33.2807V33.3274H3.37431C3.79338 25.332 7.23463 17.7945 13.0014 12.2408L13.0131 12.232ZM3.37723 36.6639H15.8041C15.8935 42.6984 16.9348 48.6809 18.8897 54.3906L18.7701 53.9881C16.5799 55.1518 14.6959 56.403 12.946 57.8146L13.016 57.7621C7.26114 52.2294 3.81867 44.7198 3.38306 36.7485L3.38015 36.6668L3.37723 36.6639Z" fill="#919191"/>
</svg>
