<svg xmlns="http://www.w3.org/2000/svg" width="38" height="55" viewBox="0 0 38 55" fill="none">
  <path d="M21.9009 3.08775C21.069 0.0668655 16.7207 -0.0737875 15.7777 3.08775C10.8773 19.647 0.398438 24.1469 0.398438 35.8179C0.398438 46.1507 8.64655 54.5111 18.8393 54.5111C29.0321 54.5111 37.2802 46.1507 37.2802 35.8179C37.2802 24.0881 26.8245 19.7226 21.9009 3.08775ZM18.8393 47.7934C12.3693 47.7934 7.10422 42.5189 7.10422 36.0373C7.10422 35.1094 7.85443 34.3578 8.78066 34.3578C9.7069 34.3578 10.4571 35.1094 10.4571 36.0373C10.4571 40.6673 14.2176 44.4345 18.8393 44.4345C19.7656 44.4345 20.5158 45.186 20.5158 46.1139C20.5158 47.0418 19.7656 47.7934 18.8393 47.7934Z" fill="#081C15"/>
</svg>