<svg xmlns="http://www.w3.org/2000/svg" width="67" height="51" viewBox="0 0 67 51" fill="none">
  <path d="M65.9446 16.5029L57.6881 2.44836C56.7754 0.892505 54.7528 0.363513 53.1762 1.25554L46.0192 5.31114L52.2115 15.8599C52.4397 16.254 52.3049 16.7415 51.9107 16.9697L50.4793 17.7787C50.0852 18.0069 49.577 17.8721 49.3488 17.4779L43.1564 6.9396L37.4309 10.1862L40.3248 15.1027C40.553 15.4968 40.4181 15.9843 40.024 16.2125L38.5926 17.0216C38.1984 17.2498 37.6902 17.1149 37.462 16.7208L34.5681 11.8146L28.8426 15.0612L35.0452 25.6099C35.2734 25.9937 35.1386 26.4915 34.7444 26.7197L33.3131 27.5288C32.9189 27.757 32.4107 27.6221 32.1825 27.228L25.9902 16.6793L20.2646 19.9258L23.1585 24.8423C23.3867 25.2365 23.2518 25.724 22.8577 25.9522L21.4263 26.7612C21.0322 26.9894 20.5239 26.8546 20.2957 26.4604L17.4018 21.5335L11.6763 24.7801L17.8686 35.3288C18.0968 35.7126 17.9619 36.2105 17.5678 36.4387L16.1364 37.2477C15.7422 37.4759 15.234 37.3411 15.0058 36.9469L8.81349 26.4293L1.65654 30.4849C0.0799428 31.3873 -0.469793 33.3684 0.442976 34.9243L8.69939 48.9892C9.61216 50.5451 11.6348 51.0741 13.2114 50.1821L64.7414 20.9423C66.318 20.0503 66.8573 18.0588 65.9446 16.5029Z" fill="#081C15"/>
</svg>