<svg xmlns="http://www.w3.org/2000/svg" width="62" height="50" viewBox="0 0 62 50" fill="none">
  <path d="M50.5657 43.3255H33.9251V15.4573C35.8558 14.6121 37.3383 12.9783 38.0267 10.9691L50.5071 6.7844C51.2994 6.51872 51.7258 5.66116 51.4601 4.86885L50.4986 2.00024C50.2329 1.20793 49.3753 0.781513 48.583 1.04719L37.4338 4.7847C36.1281 2.51459 33.7067 0.967773 30.8996 0.967773C26.7224 0.967773 23.3357 4.3545 23.3357 8.53166C23.3357 8.85596 23.3915 9.16608 23.4312 9.47998L11.2921 13.5503C10.4998 13.816 10.0734 14.6735 10.3391 15.4658L11.3006 18.3344C11.5663 19.1268 12.4238 19.5532 13.2162 19.2875L26.6468 14.7842C27.0316 15.0461 27.4438 15.2682 27.875 15.4573V47.8639C27.875 48.6997 28.5519 49.3766 29.3878 49.3766H50.5666C51.4024 49.3766 52.0794 48.6997 52.0794 47.8639V44.8383C52.0785 44.0025 51.4015 43.3255 50.5657 43.3255ZM61.1532 29.7105C61.1532 28.1807 61.2799 28.8851 53.1119 12.549C51.4431 9.21241 46.6646 9.20579 44.993 12.549C36.7559 29.0251 36.9526 28.229 36.9526 29.7105H36.9507C36.9507 33.8877 42.3693 37.2744 49.0529 37.2744C55.7365 37.2744 61.1551 33.8877 61.1551 29.7105H61.1532ZM42.2454 28.1978L49.0529 14.5828L55.8604 28.1978H42.2454ZM16.8052 24.6512C15.1364 21.3146 10.358 21.308 8.68634 24.6512C0.449272 41.1273 0.645934 40.3312 0.645934 41.8127H0.644043C0.644043 45.9899 6.06262 49.3766 12.7463 49.3766C19.4299 49.3766 24.8485 45.9899 24.8485 41.8127H24.8466C24.8466 40.283 24.9733 40.9873 16.8052 24.6512ZM5.93876 40.3L12.7463 26.685L19.5538 40.3H5.93876Z" fill="#FAF1BF"/>
</svg>