<svg xmlns="http://www.w3.org/2000/svg" width="65" height="45" viewBox="0 0 65 45" fill="none">
  <path d="M53.8595 19.4586C54.2676 18.3937 54.4965 17.2292 54.4965 16.015C54.4965 10.7402 50.2169 6.46065 44.9421 6.46065C42.9815 6.46065 41.1502 7.0578 39.6374 8.07295C36.8806 3.29576 31.7352 0.0910645 25.8333 0.0910645C17.0353 0.0910645 9.90936 7.21704 9.90936 16.015C9.90936 16.2838 9.91931 16.5525 9.92927 16.8212C4.35588 18.7818 0.35498 24.0965 0.35498 30.3466C0.35498 38.2588 6.77433 44.6782 14.6866 44.6782H51.3117C58.3481 44.6782 64.0509 38.9754 64.0509 31.939C64.0509 25.7784 59.6718 20.633 53.8595 19.4586Z" fill="#FAF1BF"/>
</svg>