<svg xmlns="http://www.w3.org/2000/svg" width="45" height="59" viewBox="0 0 45 59" fill="none">
  <path d="M29.7206 18.9615V2.69552C29.7206 1.69697 28.9001 0.888184 27.8871 0.888184H24.22C23.207 0.888184 22.3865 1.69697 22.3865 2.69552V19.2925C22.9618 19.0914 23.5714 18.9615 24.2166 18.9615H29.7206ZM44.3888 29.8044C44.3877 25.8124 41.1045 22.5762 37.0559 22.5762H24.2051C23.199 22.5762 22.3831 23.3748 22.3831 24.3666V24.4298C22.3831 27.3973 24.824 29.8055 27.8344 29.8055H31.875C32.9843 29.8055 33.3877 30.2099 33.3877 30.7092V32.5391C33.3877 33.0237 32.9763 33.4179 32.4847 33.4428C27.3829 33.7003 25.1322 36.234 21.4778 41.6379L20.7547 42.7076C20.688 42.8064 20.6022 42.8912 20.5022 42.9573C20.4022 43.0233 20.29 43.0693 20.172 43.0926C20.0539 43.1159 19.9324 43.116 19.8143 43.093C19.6963 43.07 19.5839 43.0242 19.4838 42.9584L17.9585 41.9553C17.8584 41.8896 17.7723 41.805 17.7053 41.7064C17.6383 41.6079 17.5916 41.4973 17.568 41.3809C17.5444 41.2646 17.5442 41.1448 17.5676 41.0284C17.5909 40.912 17.6373 40.8013 17.7041 40.7026L18.4272 39.6329C20.2298 36.9671 21.888 34.7463 23.8487 33.0723C21.8697 32.4499 20.2505 31.0255 19.3944 29.1809C18.6392 29.5661 17.7947 29.8044 16.8882 29.8044H13.2212C11.8071 29.8044 10.5293 29.2611 9.55411 28.3947C8.57776 29.2622 7.30002 29.8055 5.88706 29.8055H2.22C1.57368 29.8055 0.96289 29.6756 0.386475 29.4723V38.2751C0.386475 42.1101 1.93122 45.7869 4.68266 48.499L7.71944 51.4935V58.7229H37.0536V51.4981L41.1687 47.4406C43.2323 45.406 44.3915 42.6466 44.3911 39.7696L44.3888 29.8044ZM40.7206 19.628V6.31019C40.7206 5.31163 39.9001 4.50285 38.8871 4.50285H35.2201C34.207 4.50285 33.3865 5.31163 33.3865 6.31019V18.9615H37.0536C38.3462 18.9615 39.5678 19.2225 40.7206 19.628ZM2.22 26.1909H5.88706C6.90008 26.1909 7.72058 25.3821 7.72058 24.3835V9.92485C7.72058 8.9263 6.90008 8.11752 5.88706 8.11752H2.22C1.20698 8.11752 0.386475 8.9263 0.386475 9.92485V24.3835C0.386475 25.3821 1.20698 26.1909 2.22 26.1909ZM13.22 26.1909H16.8871C17.9001 26.1909 18.7206 25.3821 18.7206 24.3835V6.31019C18.7206 5.31163 17.9001 4.50285 16.8871 4.50285H13.22C12.207 4.50285 11.3865 5.31163 11.3865 6.31019V24.3835C11.3865 25.3821 12.207 26.1909 13.22 26.1909Z" fill="#FAF1BF"/>
</svg>