<svg xmlns="http://www.w3.org/2000/svg" width="38" height="56" viewBox="0 0 38 56" fill="none">
  <path d="M21.7212 3.30372C20.883 0.260377 16.5024 0.118679 15.5524 3.30372C10.6156 19.9861 0.0588379 24.5193 0.0588379 36.2771C0.0588379 46.6867 8.36825 55.1093 18.6368 55.1093C28.9053 55.1093 37.2148 46.6867 37.2148 36.2771C37.2148 24.4601 26.6813 20.0622 21.7212 3.30372ZM18.6368 48.3416C12.1187 48.3416 6.81446 43.0279 6.81446 36.4981C6.81446 35.5634 7.57025 34.8062 8.50337 34.8062C9.43649 34.8062 10.1923 35.5634 10.1923 36.4981C10.1923 41.1626 13.9807 44.9577 18.6368 44.9577C19.5699 44.9577 20.3257 45.7149 20.3257 46.6497C20.3257 47.5845 19.5699 48.3416 18.6368 48.3416Z" fill="#FAF1BF"/>
</svg>