<svg xmlns="http://www.w3.org/2000/svg" width="68" height="51" viewBox="0 0 68 51" fill="none">
  <path d="M66.805 15.8263L58.4873 1.66723C57.5677 0.0998119 55.5301 -0.433111 53.9417 0.465544L46.7316 4.55129L52.9699 15.1784C53.1998 15.5755 53.064 16.0666 52.6669 16.2965L51.2249 17.1116C50.8278 17.3414 50.3158 17.2056 50.0859 16.8085L43.8476 6.19186L38.0794 9.46254L40.9949 14.4156C41.2247 14.8127 41.0889 15.3038 40.6918 15.5337L39.2498 16.3487C38.8527 16.5786 38.3407 16.4428 38.1108 16.0457L35.1954 11.1031L29.4273 14.3738L35.6761 25.0009C35.906 25.3875 35.7701 25.8891 35.373 26.119L33.931 26.9341C33.5339 27.164 33.0219 27.0281 32.792 26.631L26.5537 16.0039L20.7856 19.2746L23.701 24.2277C23.9309 24.6247 23.795 25.1159 23.3979 25.3457L21.9559 26.1608C21.5588 26.3907 21.0468 26.2549 20.8169 25.8578L17.9015 20.8943L12.1334 24.165L18.3717 34.7921C18.6016 35.1787 18.4658 35.6803 18.0687 35.9102L16.6267 36.7252C16.2296 36.9551 15.7176 36.8193 15.4877 36.4222L9.24934 25.8264L2.03921 29.9122C0.450887 30.8213 -0.102935 32.8171 0.816619 34.3845L9.1344 48.554C10.054 50.1215 12.0916 50.6544 13.6799 49.7557L65.5929 20.2986C67.1812 19.4 67.7246 17.3937 66.805 15.8263Z" fill="#FAF1BF"/>
</svg>