<svg xmlns="http://www.w3.org/2000/svg" width="62" height="49" viewBox="0 0 62 49" fill="none">
  <path d="M50.6455 42.5808H33.9437V14.61C35.8815 13.7617 37.3694 12.1219 38.0603 10.1053L50.5866 5.90518C51.3819 5.63852 51.8099 4.77781 51.5432 3.98257L50.5781 1.10341C50.3114 0.308176 49.4507 -0.119808 48.6555 0.146852L37.4653 3.89812C36.1548 1.61965 33.7245 0.0671387 30.907 0.0671387C26.7144 0.0671387 23.3152 3.46634 23.3152 7.65887C23.3152 7.98437 23.3712 8.29563 23.4111 8.61068L11.2273 12.696C10.4321 12.9626 10.0041 13.8234 10.2707 14.6186L11.2358 17.4978C11.5025 18.293 12.3632 18.721 13.1585 18.4543L26.6385 13.9344C27.0248 14.1972 27.4385 14.4203 27.8712 14.61V47.1359C27.8712 47.9748 28.5507 48.6542 29.3896 48.6542H50.6464C51.4853 48.6542 52.1648 47.9748 52.1648 47.1359V44.0992C52.1638 43.2603 51.4844 42.5808 50.6455 42.5808ZM61.272 28.9157C61.272 27.3803 61.3992 28.0873 53.201 11.691C51.5261 8.34213 46.73 8.33548 45.0523 11.691C36.7849 28.2277 36.9823 27.4287 36.9823 28.9157H36.9804C36.9804 33.1083 42.4189 36.5075 49.1271 36.5075C55.8354 36.5075 61.2739 33.1083 61.2739 28.9157H61.272ZM42.2946 27.3974L49.1271 13.7323L55.9597 27.3974H42.2946ZM16.7607 23.8378C15.0858 20.4889 10.2897 20.4823 8.61195 23.8378C0.344551 40.3745 0.541937 39.5755 0.541937 41.0625H0.540039C0.540039 45.255 5.97857 48.6542 12.6868 48.6542C19.3951 48.6542 24.8336 45.255 24.8336 41.0625H24.8317C24.8317 39.5271 24.9589 40.234 16.7607 23.8378ZM5.85425 39.5441L12.6868 25.879L19.5194 39.5441H5.85425Z" fill="#FFD8F1"/>
</svg>