<svg xmlns="http://www.w3.org/2000/svg" width="65" height="45" viewBox="0 0 65 45" fill="none">
  <path d="M54.1424 19.6368C54.552 18.568 54.7817 17.3993 54.7817 16.1806C54.7817 10.8864 50.4864 6.59104 45.1922 6.59104C43.2243 6.59104 41.3863 7.19038 39.868 8.20928C37.101 3.4145 31.9366 0.197998 26.0131 0.197998C17.1827 0.197998 10.0305 7.35021 10.0305 16.1806C10.0305 16.4503 10.0405 16.72 10.0505 16.9897C4.45655 18.9576 0.440918 24.2918 0.440918 30.5649C0.440918 38.5063 6.8839 44.9493 14.8253 44.9493H51.5852C58.6475 44.9493 64.3713 39.2255 64.3713 32.1632C64.3713 25.9799 59.9761 20.8156 54.1424 19.6368Z" fill="#FFD8F1"/>
</svg>