<svg xmlns="http://www.w3.org/2000/svg" width="46" height="60" viewBox="0 0 46 60" fill="none">
  <path d="M30.3469 19.116V2.79006C30.3469 1.78783 29.5234 0.976074 28.5067 0.976074H24.8261C23.8093 0.976074 22.9858 1.78783 22.9858 2.79006V19.4481C23.5632 19.2463 24.1751 19.116 24.8226 19.116H30.3469ZM45.0692 29.9988C45.068 25.9921 41.7728 22.7439 37.7092 22.7439H24.8111C23.8013 22.7439 22.9824 23.5455 22.9824 24.5409V24.6044C22.9824 27.5827 25.4322 29.9999 28.4537 29.9999H32.5093C33.6226 29.9999 34.0275 30.4058 34.0275 30.9069V32.7435C34.0275 33.2299 33.6146 33.6256 33.1211 33.6505C28.0006 33.909 25.7416 36.452 22.0737 41.8758L21.348 42.9495C21.281 43.0486 21.1949 43.1338 21.0946 43.2001C20.9942 43.2664 20.8816 43.3125 20.7631 43.3359C20.6447 43.3593 20.5227 43.3594 20.4042 43.3363C20.2857 43.3132 20.1729 43.2673 20.0724 43.2012L18.5415 42.1944C18.441 42.1284 18.3546 42.0435 18.2873 41.9446C18.2201 41.8457 18.1733 41.7347 18.1495 41.6179C18.1258 41.5012 18.1257 41.3809 18.1491 41.2641C18.1726 41.1473 18.2192 41.0362 18.2862 40.9371L19.012 39.8634C20.8212 37.1878 22.4855 34.9589 24.4534 33.2787C22.4671 32.654 20.8419 31.2243 19.9827 29.3729C19.2248 29.7595 18.3771 29.9988 17.4673 29.9988H13.7867C12.3674 29.9988 11.085 29.4534 10.1062 28.5838C9.12623 29.4546 7.84378 29.9999 6.42562 29.9999H2.74506C2.09637 29.9999 1.48332 29.8695 0.904785 29.6654V38.5007C0.904785 42.3497 2.45522 46.0401 5.21679 48.7622L8.26475 51.7677V59.0237H37.7069V51.7723L41.8372 47.6999C43.9084 45.6578 45.0718 42.8883 45.0715 40.0006L45.0692 29.9988ZM41.3874 19.7849V6.41804C41.3874 5.41581 40.5639 4.60405 39.5472 4.60405H35.8666C34.8499 4.60405 34.0263 5.41581 34.0263 6.41804V19.116H37.7069C39.0043 19.116 40.2304 19.3778 41.3874 19.7849ZM2.74506 26.3719H6.42562C7.44237 26.3719 8.2659 25.5601 8.2659 24.5579V10.046C8.2659 9.04379 7.44237 8.23203 6.42562 8.23203H2.74506C1.72831 8.23203 0.904785 9.04379 0.904785 10.046V24.5579C0.904785 25.5601 1.72831 26.3719 2.74506 26.3719ZM13.7856 26.3719H17.4661C18.4829 26.3719 19.3064 25.5601 19.3064 24.5579V6.41804C19.3064 5.41581 18.4829 4.60405 17.4661 4.60405H13.7856C12.7688 4.60405 11.9453 5.41581 11.9453 6.41804V24.5579C11.9453 25.5601 12.7688 26.3719 13.7856 26.3719Z" fill="#FFD8F1"/>
</svg>