<svg xmlns="http://www.w3.org/2000/svg" width="39" height="55" viewBox="0 0 39 55" fill="none">
  <path d="M22.6298 2.41168C21.7886 -0.642862 17.3918 -0.785082 16.4383 2.41168C11.4833 19.1554 0.887695 23.7054 0.887695 35.5065C0.887695 45.9544 9.22771 54.408 19.5341 54.408C29.8404 54.408 38.1804 45.9544 38.1804 35.5065C38.1804 23.646 27.6081 19.2319 22.6298 2.41168ZM19.5341 47.6154C12.9919 47.6154 7.66819 42.2821 7.66819 35.7283C7.66819 34.7901 8.42676 34.0302 9.36332 34.0302C10.2999 34.0302 11.0584 34.7901 11.0584 35.7283C11.0584 40.4099 14.8608 44.2191 19.5341 44.2191C20.4706 44.2191 21.2292 44.979 21.2292 45.9172C21.2292 46.8554 20.4706 47.6154 19.5341 47.6154Z" fill="#FFD8F1"/>
</svg>