<svg xmlns="http://www.w3.org/2000/svg" width="68" height="51" viewBox="0 0 68 51" fill="none">
  <path d="M67.2305 15.9877L58.8821 1.77654C57.9592 0.203343 55.9141 -0.331542 54.3199 0.570421L47.0832 4.67121L53.3445 15.3375C53.5752 15.736 53.4389 16.2289 53.0404 16.4597L51.593 17.2777C51.1945 17.5085 50.6806 17.3721 50.4498 16.9736L44.1885 6.31782L38.3992 9.60054L41.3253 14.5718C41.5561 14.9704 41.4197 15.4633 41.0212 15.694L39.5738 16.5121C39.1753 16.7428 38.6614 16.6065 38.4306 16.208L35.5045 11.2472L29.7152 14.5299L35.987 25.1961C36.2177 25.5842 36.0813 26.0876 35.6828 26.3183L34.2355 27.1364C33.8369 27.3671 33.323 27.2308 33.0923 26.8322L26.831 16.166L21.0416 19.4487L23.9678 24.42C24.1985 24.8186 24.0622 25.3115 23.6636 25.5422L22.2163 26.3603C21.8177 26.591 21.3038 26.4547 21.0731 26.0561L18.147 21.0744L12.3576 24.3571L18.6189 35.0233C18.8497 35.4114 18.7133 35.9148 18.3148 36.1455L16.8674 36.9636C16.4689 37.1943 15.955 37.058 15.7242 36.6595L9.46294 26.0247L2.22625 30.1255C0.632087 31.0379 0.0762255 33.0411 0.999165 34.6143L9.34757 48.836C10.2705 50.4092 12.3157 50.944 13.9098 50.0421L66.0139 20.4765C67.6081 19.5746 68.1535 17.5609 67.2305 15.9877Z" fill="#FFD8F1"/>
</svg>